<svg id="Layer_1" data-name="Layer 1" xmlns="http://www.w3.org/2000/svg" viewBox="0 0 404.23 271.04"><defs><style>.cls-1{fill:#231f20;}</style></defs><title>The Doofi Logo</title><path class="cls-1" d="M47.46,15.8Q58,18.38,61.83,20.68,64,20.68,72.6,25l6.29,2.71,4.79,2.71Q86.08,31,93,37.2q2.24,2.29,6.58,7,6.58,9.94,6.59,14.35a23.57,23.57,0,0,1,1.8,4.88h-.3Q109,65.77,110,75.11c.2,0,.4.45.6,1.36l-.3.54q.3.13.3,1.89c-.2,0-.3.1-.3.28q.9,5.68,1.5,5.68l-.3.54.3,1.9h-.3q0,.27.3.27l-.3,1.36.3,2.43-.3.55q.3.81.6.81l-.3,1.35a7.73,7.73,0,0,0,.6,2.71,9.24,9.24,0,0,0-.6,2.71q0,.33.6,5.42.6,6.63.3,27.08.07,5,0,13.54-.3,5.35-.3,9.48h-.3l.3.54q.3,5.63.3,9.21l-.3,1.35c.15.77.35,1.94.59,3.52a2.06,2.06,0,0,0-.29.82c0,.18.1.27.29.27l-.29,1.35q0,2.72.59,8.13,0,.27-.3.27l.3,1.35v5.42a42.9,42.9,0,0,0,.3,4.33c-.4,2.89-.89,5.69-1.49,8.4l.3.54q0,1.29-3,16.52a18.44,18.44,0,0,1-1.49,6.5q-2.4,10.29-5.69,16a55.47,55.47,0,0,1-6.59,11.1q0,1.83-7.48,8.13-.83,0-5.39,3.25l-6.58,4.6q-.75,0-9,4.34a108.89,108.89,0,0,1-13.76,5.41,72.64,72.64,0,0,1-9.28,2.71q0,.61-6.89,1.9c0,.13-.6.49-1.79,1.08h-1.8l-9.88,1.35v-.27l-.6.27-2.69.14q1.2-14,1.49-24.78a250.8,250.8,0,0,1,2.4-33.31v-.82a2,2,0,0,0-.3-1.08c.2-1.44.4-2.17.6-2.17a1.93,1.93,0,0,1-.3-.81q.6-3.53,1.79-16l-.29-.54c.39-3.3.79-5.82,1.19-7.58a2.89,2.89,0,0,0-1.19-2.17,2.4,2.4,0,0,1,.89-.27v-1.36h-.6v-.27l.6-.81v-.81l-.6-.81a9.77,9.77,0,0,0,.9-3q0-.27-.3-.27l.3-1.9v-2.44a2,2,0,0,0-.3-1.08,13.39,13.39,0,0,0,.9-2.71c-.4-2.17-.7-3.25-.9-3.25a40,40,0,0,1,.6-4.87l-.6-5.15h.3q0-.27-.3-.27l.3-1.36v-.54a2,2,0,0,0-.3-1.08l.3-.54a12.09,12.09,0,0,0-.6-3.52,2.11,2.11,0,0,0,0-2.17,8.17,8.17,0,0,0,.6-3.52v-6.77a2,2,0,0,1,.3-1.08,2,2,0,0,1-.3-1.09V139q0-.27.3-.27,0-.27-.3-.27l.3-1.09a5.72,5.72,0,0,0-.6-2.16l.3-.54-.3-1.36.3-1.35a1.91,1.91,0,0,1-.3-.82l.3-.54a1.93,1.93,0,0,1-.3-.81q0-.27.3-.27l-.3-1.08q-.3-15-.6-16.25a23.81,23.81,0,0,1,.6-3.52c-.2-1.63-.4-2.44-.6-2.44l.6-5.15a1.24,1.24,0,0,1,0-1.62,30.85,30.85,0,0,1-.6-6.23V92.18a19.19,19.19,0,0,1,.3-3q0-.27-.3-.27l.3-1.36V81.34a15.58,15.58,0,0,0-.59-2.16V75.66a2,2,0,0,0-.3-1.09q0-.27.3-.27L25.61,73a33.19,33.19,0,0,1,.3-4.88,16.87,16.87,0,0,0-.6-4.06,2,2,0,0,0,.3-1.08v-.55q0-.81-.3-.81l.3-1.35V59.13A26,26,0,0,0,25,54.8q0-.27.3-.27l-.3-1.9v-3l.3-.54q-.6,0-.6-.54V47.22a10.6,10.6,0,0,0-.6-4.34q0-.27.3-.27Q22.91,27,20.22,12.48A120,120,0,0,1,47.46,15.8Zm18.26,89.92-.3,1.89v2.71Q66.62,121,66.62,122v1.89c0,1.58-.1,3.39-.3,5.42a8.7,8.7,0,0,1,.3,2.44h-.3l.3.54v4.6a17.42,17.42,0,0,0,.59,5.69q0,.27-.3.27a19,19,0,0,1,.6,4.33,7.2,7.2,0,0,1-.3,1.9l.6,5.69h-.3l.3.54a1.93,1.93,0,0,0-.3.81q0,.27.3.27l-.3,1.36v2.16a19.19,19.19,0,0,1-.3,3,2,2,0,0,1,.3,1.09l-.3.54a2,2,0,0,1,.3,1.08,2,2,0,0,1-.3,1.08,12.29,12.29,0,0,1,.6,3.53q-.6,15.36-1.49,24.91l.3,1.9-.3,1.35.3,1.36a20.82,20.82,0,0,0-.3,3.52v.27q2.61,0,12.57-9.48c2-3.66,3-6,3-7a87.14,87.14,0,0,1,1.2-8.94q0-.27-.3-.27c.2-2.12.3-3.66.3-4.61v-2.7l.3-1.63-.3-.54a14.93,14.93,0,0,1,.6-3.52q0-.27-.3-.27a38.2,38.2,0,0,0,.6-7.86v-3q0-.27.3-.27l-.3-.54q0-.27.3-.27l-.3-1.89v-1.63q0-.81.3-.81l-.3-1.36v-2.16a34.42,34.42,0,0,0-.6-6.77l.3-.55Q82.26,124.68,78.89,119q-1.8-4.33-12.87-13.27Z" transform="translate(-20.22 -12.48)"/><path class="cls-1" d="M147.48,120.07v.22l.5-.22c.16,0,.24.07.24.22l.5-.22h4c.16,0,.25.07.25.22l.49-.22c.17,0,.25.07.25.22a2,2,0,0,1,.74-.22,50.93,50.93,0,0,1,14.85,2.45,61,61,0,0,1,12.87,6.69q5.33,3.4,9.84,10.82,2.22,5.46,2.53,17.5,0,.56.25,6l-.25.45a19.93,19.93,0,0,1,.74,3.79H195l.24.44c.17,4,.33,6,.5,6l-.25.45c.33,2.93.5,4.87.5,5.8,0,.14-.09.22-.25.22l.25,1.11v15.84a1.71,1.71,0,0,0,0,1.78l-.25.45a1.65,1.65,0,0,1,.25.89l-.25,1.11.25.45-.25.44.25.9-.25.44.25.45-.25.44c0,.15.08.23.25.23l-.25,1.11v.89l.25,1.57h-.25c0,.14.08.22.25.22l-.25,1.11v4.24l-.25,1.34a1.57,1.57,0,0,1,.25.89c-.17,1.3-.25,2-.25,2.23s.08.22.25.22l-.25,1.12v.66q0,5.81-.74,7.81v2.9c0,1.49-.17,2.23-.5,2.23l.25.44c-.16,3.09-.25,5.62-.25,7.58l-.74,4.47.25,1.11a37.68,37.68,0,0,1-2,7.8c0,.15.08.23.25.23q0,2.28-4.95,10.92a31.77,31.77,0,0,1-11.14,9.59q-1.31,1.33-12.62,3.57c-.58,0-2.31.07-5.2.22l-.49-.22a2.12,2.12,0,0,1-1,.22v-.22l-.49.22h-.25c-.17,0-.25-.07-.25-.22l-.49.22c-3-.33-4.46-.63-4.46-.89-.5.15-.74.3-.74.44a34.82,34.82,0,0,1-3.47-.44l-1,.44-7.42-1.11c-4.66-1.64-8-3.86-9.9-6.69A29.34,29.34,0,0,1,120,256.75a130.37,130.37,0,0,1-3-15.83h.25l-1-7.36a356.32,356.32,0,0,1-.74-39.24q.73-16.33.49-17.84l.5-2.23a12,12,0,0,0-.25-1.33c.21-5.06.45-7.59.74-7.59a10.4,10.4,0,0,1-.24-1.78c.33-2,.57-4.38.74-7.14l-.25-.44,1.24-5.8v-1.34c.16-2.67.58-4,1.23-4l-.24-.45q0-3,2.72-9.36a1.55,1.55,0,0,1-.25-.67c.33,0,.5-.15.5-.45l-.25-.44q.67-2.17,7.92-8.92A37.09,37.09,0,0,1,147.48,120.07Zm1.24,43.7c0,.15.08.23.25.23l-.25,1.11V166q-.5,10.49-1,16.28a1.69,1.69,0,0,1,.25.67h-.25l.25.44v7.81a1.77,1.77,0,0,1,0,1.78,13.45,13.45,0,0,0,.24,1.34H148a1.64,1.64,0,0,1,.24.67,28.28,28.28,0,0,1-.49,4.24,6.11,6.11,0,0,1,.25,1.56h-.25l.25.44a26,26,0,0,1-.25,3.12c0,.15.08.23.25.23a1.69,1.69,0,0,1-.25.67q.5,7.86.49,8.69H148a.21.21,0,0,0,.24.23l-.24,1.11v2.23a2.41,2.41,0,0,0,.49,1.34,1.55,1.55,0,0,1-.25.67q.38,27.93,4.27,35c1.2,2,2.58,2.94,4.15,2.9q4.2.22,7.92-12.93a14.6,14.6,0,0,1,.74-4.9c0-.15-.08-.23-.25-.23a27.09,27.09,0,0,0,.5-5.8,35.3,35.3,0,0,0-.25-4.23,31.12,31.12,0,0,0,.25-4.68v-.9l-.25-1.33a2.07,2.07,0,0,0,.25-1.12,12,12,0,0,0-.25-1.34c0-.14.08-.22.25-.22l-.25-1.12c.12-2.82.29-4.23.5-4.23,0-.15-.09-.22-.25-.22l.25-2c-.17-4.76-.33-7.14-.5-7.14l.25-1.33v-.9q.06-5.56.49-5.57l-.24-.45v-.22c0-.15.08-.22.24-.22L165.3,193l.25-1.56v-4l-.25-2.23c.17,0,.25-.07.25-.22-.33,0-.5-.15-.5-.45a.46.46,0,0,1,.5-.45,4.92,4.92,0,0,0-.74-2,.21.21,0,0,1,.24-.23,1,1,0,0,1,0-1.33,68.15,68.15,0,0,1-1-7.58h.25l-.25-.45v-1.11h-.49l.25-1.57v-.67l-.25-1.56h.25c-.66-3.79-1.08-5.87-1.24-6.24a1.68,1.68,0,0,0,.25-.89c-.38,0-.62-.52-.75-1.56l.5-.23q-2.54-10.3-4.7-14.71c-1.28-1.93-2-2.9-2.23-2.9h-.25q-1.92,0-5,9.14A100.23,100.23,0,0,1,148.72,163.77Z" transform="translate(-20.22 -12.48)"/><path class="cls-1" d="M232.12,120.07v.22l.49-.22c.17,0,.25.07.25.22l.49-.22h4c.17,0,.25.07.25.22l.49-.22c.17,0,.25.07.25.22a2,2,0,0,1,.74-.22,50.93,50.93,0,0,1,14.85,2.45,61,61,0,0,1,12.87,6.69q5.33,3.4,9.84,10.82,2.22,5.46,2.54,17.5,0,.56.24,6l-.24.45a20.88,20.88,0,0,1,.74,3.79h-.25l.25.44c.16,4,.33,6,.49,6l-.24.45c.33,2.93.49,4.87.49,5.8,0,.14-.08.22-.25.22l.25,1.11v15.84a1.71,1.71,0,0,0,0,1.78l-.25.45a1.57,1.57,0,0,1,.25.89l-.25,1.11.25.45-.25.44.25.9-.25.44.25.45-.25.44c0,.15.09.23.25.23l-.25,1.11v.89l.25,1.57h-.25c0,.14.09.22.25.22l-.25,1.11v4.24l-.24,1.34a1.65,1.65,0,0,1,.24.89c-.16,1.3-.24,2-.24,2.23s.08.22.24.22l-.24,1.12v.66q0,5.81-.75,7.81v2.9c0,1.49-.16,2.23-.49,2.23l.25.44q-.25,4.64-.25,7.58l-.74,4.47.24,1.11a37.68,37.68,0,0,1-2,7.8c0,.15.09.23.25.23q0,2.28-5,10.92a31.66,31.66,0,0,1-11.13,9.59q-1.31,1.33-12.62,3.57c-.58,0-2.31.07-5.2.22l-.5-.22a2.09,2.09,0,0,1-1,.22v-.22l-.49.22h-.25c-.17,0-.25-.07-.25-.22l-.49.22c-3-.33-4.46-.63-4.46-.89-.49.15-.74.3-.74.44a34,34,0,0,1-3.46-.44l-1,.44-7.43-1.11c-4.66-1.64-8-3.86-9.89-6.69a29.34,29.34,0,0,1-8.17-14.72,126.61,126.61,0,0,1-3-15.83h.25l-1-7.36a358.71,358.71,0,0,1-.75-39.24q.75-16.33.5-17.84l.49-2.23c0-.11-.08-.55-.24-1.33q.3-7.59.74-7.59a9.7,9.7,0,0,1-.25-1.78,69.35,69.35,0,0,0,.74-7.14l-.24-.44,1.23-5.8v-1.34c.17-2.67.58-4,1.24-4l-.25-.45q0-3,2.72-9.36a1.64,1.64,0,0,1-.24-.67c.33,0,.49-.15.49-.45l-.25-.44q.69-2.17,7.93-8.92A37.06,37.06,0,0,1,232.12,120.07Zm1.23,43.7c0,.15.09.23.25.23l-.25,1.11V166q-.49,10.49-1,16.28a1.55,1.55,0,0,1,.25.67h-.25l.25.44v7.81a1.71,1.71,0,0,1,0,1.78,12,12,0,0,0,.25,1.34h-.25a1.55,1.55,0,0,1,.25.67,28.64,28.64,0,0,1-.5,4.24,5.7,5.7,0,0,1,.25,1.56h-.25l.25.44a24.05,24.05,0,0,1-.25,3.12c0,.15.09.23.25.23a1.55,1.55,0,0,1-.25.67q.49,7.86.5,8.69h-.25c0,.15.08.23.25.23l-.25,1.11v2.23a2.43,2.43,0,0,0,.5,1.34,1.69,1.69,0,0,1-.25.67q.38,27.93,4.27,35c1.19,2,2.57,2.94,4.14,2.9q4.22.22,7.92-12.93a14.34,14.34,0,0,1,.75-4.9c0-.15-.09-.23-.25-.23a27.19,27.19,0,0,0,.49-5.8,37.49,37.49,0,0,0-.24-4.23,32.88,32.88,0,0,0,.24-4.68v-.9l-.24-1.33a2.17,2.17,0,0,0,.24-1.12,13.45,13.45,0,0,0-.24-1.34c0-.14.08-.22.24-.22l-.24-1.12c.12-2.82.28-4.23.49-4.23,0-.15-.08-.22-.25-.22l.25-2c-.16-4.76-.33-7.14-.49-7.14l.24-1.33v-.9q.06-5.56.5-5.57l-.25-.45v-.22c0-.15.08-.22.25-.22l-.74-3.35.24-1.56v-4l-.24-2.23c.16,0,.24-.07.24-.22-.33,0-.49-.15-.49-.45a.45.45,0,0,1,.49-.45,4.64,4.64,0,0,0-.74-2c0-.15.08-.23.25-.23a1,1,0,0,1,0-1.33,68.15,68.15,0,0,1-1-7.58H249l-.25-.45v-1.11h-.5l.25-1.57v-.67l-.25-1.56h.25a60.59,60.59,0,0,0-1.24-6.24,1.59,1.59,0,0,0,.25-.89c-.37,0-.62-.52-.74-1.56l.49-.23q-2.53-10.3-4.7-14.71c-1.28-1.93-2-2.9-2.23-2.9H240q-1.92,0-4.95,9.14A99.12,99.12,0,0,1,233.35,163.77Z" transform="translate(-20.22 -12.48)"/><path class="cls-1" d="M346.31,182.37c-.18-3-.26-5.75-.26-8.23a10,10,0,0,1,.26-2.36l-.26-1.76q0-6,.78-16.15h-2.35l-.79-.59h-7.58l-1.31.33c0-.22-.08-.33-.26-.33l-1.57.33a36.55,36.55,0,0,1-4.18-.33,1.73,1.73,0,0,1-.79.33,2.85,2.85,0,0,0-1.56-.59h-.27l-.52.26a.23.23,0,0,0-.26-.26H319.9c-.53-.35-.79-.65-.79-.91v-3.53l.26-1.44c-.22,0-.39-.7-.52-2.09a8.35,8.35,0,0,0,.52-3.21l-.26-.59c.18,0,.35-.5.52-1.5l-.26-.59c.18-.13.35-2,.53-5.62a2.42,2.42,0,0,1-.27-.85.24.24,0,0,0,.27-.26,2.46,2.46,0,0,0-.27-.92c.13,0,.31-2.26.53-6.8.74-.47,2.48-.85,5.23-1.11h.52l1.57.26c2.31-.21,3.7-.52,4.18-.91a1.59,1.59,0,0,1,.79.39l3.4-1h.78l1.31.33c0-.22.09-.33.26-.33a2.58,2.58,0,0,1,1.57.33,11,11,0,0,1,2.35-.33H345a5.94,5.94,0,0,1,2.88.59l.52-.26a2.08,2.08,0,0,0,1,.26h1.31a14.21,14.21,0,0,0,2.36-.26l5.23.91,1.31-.26,1.3.26a.23.23,0,0,1,.26-.26l7.85.85c0-.22.09-.33.26-.33l1.57.33h.26a9.33,9.33,0,0,1,2.09-1.83q0-1.83-1.57-16.74l.26-1.43c-.34-5.76-.52-9.29-.52-10.59l.26-1.51a2.64,2.64,0,0,1-.26-1.17c0-1.22.09-3,.26-5.23l-.26-.66h.26a2.79,2.79,0,0,0-.26-.91l.26-1.7V77.64l.26-2c-.17,0-.26-.11-.26-.33a8,8,0,0,0,.53-3.2v-5.3a53.23,53.23,0,0,1,.52-5.82l-.26-1.83.78-5.55a2.09,2.09,0,0,0-.26-.85,64.23,64.23,0,0,1,1-8l-.27-.59c.35,0,.53-.68.53-2v-1.5q0-5-2.36-5a2.09,2.09,0,0,0-.78.26l-.52-.26a13.89,13.89,0,0,1-4.19,1.11l-1-.26-3.14.91a.23.23,0,0,0-.26-.26l-.52.26a.24.24,0,0,0-.27-.26h-3.13a14.43,14.43,0,0,0-2.1.59h-.78q-1.51,0-1.83-.33a11,11,0,0,1-2.36.33h-7.32a1.72,1.72,0,0,1-1-.33,1.77,1.77,0,0,1-1,.33h-8.89l-.52.33c0-.22-.09-.33-.26-.33h-.27l-.52.33c0-.22-.09-.33-.26-.33h-.78a12.45,12.45,0,0,1-3.66-.59l-1.58.59-.52-.33-.52.33c-.13,0-.83-.11-2.09-.33a1.42,1.42,0,0,1-1.83,0h-1.31l-.52.33v-.33a1.73,1.73,0,0,0-.79.33,22.6,22.6,0,0,1-3.66-.59,8.94,8.94,0,0,0-2.09.59,8.94,8.94,0,0,0-2.09-.59l-.53.26a.23.23,0,0,0-.26-.26h-4.44a23.63,23.63,0,0,1-4.45-.39,11,11,0,0,1-2.88.39c-.91,0-3.7-.21-8.36-.65-1.92,1.09-2.88,1.79-2.88,2.09v.33c0,.22.35,1.79,1.05,4.7v6.74l.26,2.09c-.18,0-.26.11-.26.33l.26,1.37-.26.59.52,2.09H287a2.53,2.53,0,0,0,.26,1.18,16.23,16.23,0,0,0-.26,1.76,3.69,3.69,0,0,0,.26,1.51c0,.13-.09.89-.26,2.28l.26,9.48L287,74.11c.35,0,.52,2,.52,5.89v1.44l.26.72h-.26a2.64,2.64,0,0,0,.26.85,9.79,9.79,0,0,1-.26,2c.17,1.75.26,2.81.26,3.21a76,76,0,0,1-.52,8.63.23.23,0,0,1,.26.26h-.26a2.64,2.64,0,0,0,.26.85l-.26,1.5a16.16,16.16,0,0,0,.52,3.79l-.26,1.77v5.55c0,1-.09,2.49-.26,4.45.35,0,.52.39.52,1.18l-.26,1.43c.17,0,.26.11.26.33h-.26l.52,6.21a6.46,6.46,0,0,0-.52,2.09q.25,8.64.26,14.58v5.89l.26.65h-.26a7.42,7.42,0,0,0,.52,2,.23.23,0,0,0-.26.26v.91l.26.59H288q-.25,15.3-.78,18l.52,2.35-.26,1.7v6.54c0,1,.09,2.66.26,5a.23.23,0,0,0-.26.26l.26.72a83.05,83.05,0,0,0-.52,9.35v1.43l.26.59c-.17,0-.26.11-.26.33v2l-.26,1.5c.17,0,.26.11.26.33a2,2,0,0,0-.26.85,22.71,22.71,0,0,0,.52,6.14c-.26,0-.52,2.47-.78,7.39l.26,2-.26,1.5a2.35,2.35,0,0,0,.26.85l-1.05,19.42c.18,0,.26.28.26.85v.32a15.84,15.84,0,0,1-.26,2.62,2.29,2.29,0,0,1,.26.85l-1,9.15.26.65a.23.23,0,0,0-.26.26v4.12l-.26,2.1a.23.23,0,0,1,.26.26c-.13,0-.4,1.68-.79,5a.23.23,0,0,1,.26.26l-.26,1.77v6.47l.53.92q15.42-.66,16.73-.92a122.83,122.83,0,0,1,16,.78c2.49.66,5.25,1.27,8.3,1.83a9.7,9.7,0,0,0-.26-4.73,23.26,23.26,0,0,1-.72-6.38v-.91l-.26-.59h.26c0-.35-.08-.53-.26-.53q-1.31-15.56-1.83-16.27l.26-.59-.52-2.36a2.06,2.06,0,0,1,.26-.84l-.26-.59a5.1,5.1,0,0,1,.52-2l-.52-1.18a2.14,2.14,0,0,1,.26-.85,2.15,2.15,0,0,0-.26-.91l.26-2.09c0-.27-.09-1.25-.26-2.95a2.36,2.36,0,0,1,.26-1.17l-.52-8,.26-1.76-.26-1.44.26-1.18-.52-5a.23.23,0,0,0,.26-.26c-.18-.92-.44-3.77-.79-8.57l.53-2-.53-3.86.27-.59-.27-1.11a9.43,9.43,0,0,1,.27-2.09l-.53-7.32.53-1.51c0-.91,1-1.37,3.13-1.37q3.66.25,7.07.26h.26a48.81,48.81,0,0,0,5-.26c1.22.17,3.57.35,7.06.52C345,186.23,345.74,185,346.31,182.37Z" transform="translate(-20.22 -12.48)"/><path class="cls-1" d="M422.89,111.21h1.56v.26a23.39,23.39,0,0,0-1.56,5v1.82a10.84,10.84,0,0,1-1.3,5.2q0,.84-.26,7.55-.78,0-1.56,10.14a2.09,2.09,0,0,1,.26.78q-1.11,0-2.09,12.23v.52a.23.23,0,0,1-.26.26l.26.52a38.39,38.39,0,0,1-.78,5.47,2,2,0,0,1,.26.78c-.09,2.08-.26,3.12-.52,3.12l.26,1.3v1a2.08,2.08,0,0,1-.26,1,.23.23,0,0,0,.26.26,9.34,9.34,0,0,1-.52,2.08,2.11,2.11,0,0,1,.26,1c-.65.18-1.08,3.38-1.3,9.63l.26,1.82q-.25,1.11-.78,11.71l.26.52a17.89,17.89,0,0,0-.78,4.16l.26,1.56v2.34a2.08,2.08,0,0,0,.26,1,2.11,2.11,0,0,0-.26,1v.52l.26,1.57a.23.23,0,0,1-.26.26l.26,1.3v1.56c0,1.39-.09,3-.26,4.94l.26.52a14.12,14.12,0,0,0-.26,2.34v4.17a2.72,2.72,0,0,1-.26,1.3l.26,1.56v4.16q0,2.47-.26,6,.78,6.06,1.3,8.59h-.26l.26.52v.52q0,1.23,1,11.45l-.26.52q3.12,14.9,3.13,15.35c.47.82,1.08,3.08,1.82,6.76h-3.13a2.69,2.69,0,0,0-.78-.52h-1.82c-1.21,0-1.82-.17-1.82-.52l-.52.26H402.85l-.78.52h-5.2a36.61,36.61,0,0,1-9.11.78,22.32,22.32,0,0,1-4.16,1h-1.82q-.39,0-.78-.78a.23.23,0,0,1,.26-.26l-.26-.52a146.87,146.87,0,0,0,2.86-20c.13,0,.3-.35.52-1a.23.23,0,0,0-.26-.26,67.3,67.3,0,0,0,.52-10.15v-.52a8.17,8.17,0,0,1,.26-2.08,8.71,8.71,0,0,1-.26-2.08q.14-6.76.52-6.77l-.26-1.3V223.87l.26-1.57a.23.23,0,0,0-.26-.26,2.09,2.09,0,0,1,.26-.78q-.26-5.46-.26-8.84V209.3a2.08,2.08,0,0,0-.26-1,.23.23,0,0,1,.26-.26l-.26-1.31V201a2.08,2.08,0,0,1,.26-1,.23.23,0,0,0-.26-.26l.26-1.3-.26-1h.26l-.52-3.12a.23.23,0,0,1,.26-.26,25.67,25.67,0,0,1-.52-5.73V185.1a.23.23,0,0,1,.26-.26l-.26-.52v-.78a.23.23,0,0,1,.26-.26c-.13-.69-.3-1-.52-1,0-.13.09-.65.26-1.56-.35-6.81-.52-10.62-.52-11.45-.35-.3-.69-2.9-1-7.8-.17,0-.35-.87-.52-2.61a.23.23,0,0,1,.26-.26l-.78-4.94c0-.35.08-.52.26-.52l-2.86-25.5c-.18-.21-.7-2.82-1.56-7.8l.26-.52-1-3.12v-1.3q.26-.78,1.56-.78l.52.26.52-.26a11,11,0,0,0,2.6.78h1.56a13.39,13.39,0,0,1,2.6.26,7.29,7.29,0,0,1,1.82-.26c.18,0,.26.08.26.26l1.31-.26h3.12a2.11,2.11,0,0,0,1-.26,2.08,2.08,0,0,0,1,.26h.26l1.56-.26a2.08,2.08,0,0,0,1,.26,2.79,2.79,0,0,1,1.3-.52c.52.17.78.34.78.52a4.44,4.44,0,0,0,2.34-.78l1.56.26,2.86-1,1,.79c0-.35.21-.53.52-.53l1.3.26c4-.21,6-.65,6-1.3l1.3.26h1c.35-.34,1.56-.6,3.65-.78v.26Zm-20-72.59q7.81.6,10.15,2,4.94,2.93,7,10.73a82.79,82.79,0,0,1,2.08,15.16,5.77,5.77,0,0,0-.26,1.62c.17,2.39.26,3.71.26,4-.13.61-.31.91-.52.91l.26.46v1.1L421.59,76l.26.46a31,31,0,0,1-4.17,15.41,9,9,0,0,1-5.2,5.14,17.9,17.9,0,0,1-8.59,2.67h-3.64q-10.33,0-17.95-8.92c-1.09-1.34-1.95-3.59-2.6-6.76-.18,0-.26-.07-.26-.2V81.55c0-.47-.09-.71-.26-.71a1.5,1.5,0,0,1,.26-.65c-.18-4.6-.26-8.24-.26-10.93Q380.35,52.67,382.3,50a15.28,15.28,0,0,1,8.33-8.46Q393.36,39.6,402.85,38.62Z" transform="translate(-20.22 -12.48)"/><path class="cls-1" d="M169.19,36.65,169,38.38a1.57,1.57,0,0,0,.14.66,6.82,6.82,0,0,1-.28,1.15c.09.27.18.41.28.41L169,41v1.32l.14.49c0,.06-.05.08-.14.08a7.52,7.52,0,0,1,.14.91C169,45.15,169,45.89,169,46l.14.16-.14.17a18.84,18.84,0,0,1,.27,3.37,36.73,36.73,0,0,1,.38,3.87,28.31,28.31,0,0,0-3.82-.58c0,.11-.09.17-.27.17l-.28-.25c-.09,0-.13,0-.13.08a28.5,28.5,0,0,1-2.9-.24l-1,.08a7.8,7.8,0,0,0-1.51-.25,1.94,1.94,0,0,1-.56.08L158,52.36l-.82.09c-2.11-.11-3.35-.17-3.72-.17q-4.65,0-6.19.08a9.7,9.7,0,0,0-.14,2.72,7.82,7.82,0,0,1-.55,2.22c0,.05,0,.08.13.08l-.13.41v1c.27.2.41.37.41.49s-.14.72-.41,1.89a5.92,5.92,0,0,0,.13,1.07l-.13.33.13.5c0,.09-.09.53-.27,1.31.09,1.47.14,2.37.14,2.72-.07,1.59-.21,2.38-.41,2.38.09,2.16.13,3.77.13,4.86a14.83,14.83,0,0,1-.13,1.64l.13.17s0,.08-.13.08c.09.71.18,1.07.27,1.07l-.14.41v.66c0,.16.05.24.14.24l-.14.41c0,.47,0,1.4-.13,2.8l.13.58h-.13s0,.08.13.08l-.13.57v.66a4.75,4.75,0,0,0,.27,1.48c-.09,1.1-.14,1.84-.14,2.22a35.66,35.66,0,0,1,.41,4.28l.14.17-.14.16.14.41c0,.06,0,.08-.14.08a11.35,11.35,0,0,0,.42,1.49.45.45,0,0,1-.14.32,17.57,17.57,0,0,1,.14,2v.9c0,.39.11.58.27.58,0,.11,0,.16-.13.16a66.32,66.32,0,0,0,1.1,7.16A70.14,70.14,0,0,1,149.84,116q-4.12-.49-12.25-.66-5.47.08-9.36.51c.09-.57.36-2,.82-4.38q0-.57.42-.57l-.14-.41V110s0-.08.14-.08-.05-.08-.14-.08c0-.55.23-2.3.69-5.26.07-1.81.2-2.72.41-2.72l-.14-.41a6.08,6.08,0,0,1,.41-2c0-.06,0-.09-.13-.09a26.74,26.74,0,0,1,1.1-5.67l-.14-.17c.09-.16.18-.24.28-.24a4,4,0,0,0-.14-.5c.27-2,.46-4,.55-6.25h.14l-.14-.16v-.66c0-.06,0-.08.14-.08l-.14-.17c.09-1.37.18-2.05.28-2.05l-.14-.17a.45.45,0,0,1,.14-.25,2.28,2.28,0,0,1-.14-.65c0-.11,0-.17.14-.17l-.14-.49c.07-1.54.2-2.3.41-2.3,0-.06-.05-.09-.14-.09.09-.65.19-1,.28-1l-.14-.17.14-.16c0-.06,0-.08-.14-.08l.14-.42V75.81a.42.42,0,0,1,.14-.33,6.54,6.54,0,0,1-.28-2.22,9.62,9.62,0,0,0,.55-3.46h.14l-.14-.16v-.09s.05-.08.14-.08l-.14-.16V69c0-.06.05-.08.14-.08s-.05-.09-.14-.09l.14-.41v-.16a2.75,2.75,0,0,0-.14-.74.49.49,0,0,0,.14-.25l-.14-.41c0-.11.05-.16.14-.16a2.76,2.76,0,0,1-.14-.66,24.86,24.86,0,0,1,.14-2.63,22.55,22.55,0,0,1-.14-2.8c0-.06,0-.08-.14-.08l.14-.41V60c0-1,.05-2.53.14-4.52h.14a.49.49,0,0,1-.14-.25,18.23,18.23,0,0,0-.41-3.53h-.69q-.42,0-.42-.09c-1.35.11-2.18.17-2.47.17l-.28-.08c-.57,0-1.54,0-2.89.16q-7,.68-11,1.4a27.55,27.55,0,0,1,0-5.27.51.51,0,0,1-.14-.24l.14-.17a.51.51,0,0,1-.14-.24h.14c0-.06-.05-.09-.14-.09a4.75,4.75,0,0,0,.27-1.48V44.14c0-.47,0-1.15-.13-2.06h.13l-.13-.16V40.44l-.56-3.54q7.2.49,8.54.49h1.65l.41.17a1.89,1.89,0,0,0,.56-.08l3.44.16a2.41,2.41,0,0,1,.69-.08,1.87,1.87,0,0,1,.55.08c1.24-.07,2-.12,2.2-.16l.55.08c.87,0,2.29,0,4.27-.08q5.82.08,6.74.24a7.41,7.41,0,0,1,1-.08c.18,0,.27,0,.27.08a4.62,4.62,0,0,0,.56-.08c3.09,0,4.75-.11,5-.16a1.75,1.75,0,0,0,.42.08c1.05-.11,1.83-.17,2.34-.17v.09a6.72,6.72,0,0,1,1.51-.17v.08l1.24-.16.55.16.27-.08.69.08c.9-.08,1.77-.13,2.62-.16Q167.19,36.9,169.19,36.65Z" transform="translate(-20.22 -12.48)"/><path class="cls-1" d="M193.76,36.61A89.47,89.47,0,0,0,192,47.85c-.17,0-.26.29-.29.87v.87c0,.06-.05.09-.14.09l.14.17a10.61,10.61,0,0,0-.44,3.4s-.05.08-.14.08l.14.18v1.3a4.12,4.12,0,0,1-.43,1.66l.14.61v1a.45.45,0,0,1-.14.34c0,.06,0,.09.14.09a3.94,3.94,0,0,0-.14,1,68.88,68.88,0,0,1-.59,10.36l.15.79a.47.47,0,0,0-.15.26,1.65,1.65,0,0,1,.15.69v.09q0,.09-.15.09a11.15,11.15,0,0,1,.44,1.91,3.13,3.13,0,0,0-.14.79,35.21,35.21,0,0,1,.43,3.92h.15c.19,0,.29,0,.29-.09a7,7,0,0,1,1.6.26l.3-.09a17.08,17.08,0,0,1,2.33.35c.09,0,.14,0,.14-.08.83.11,1.36.17,1.61.17l.29-.09q1,.09,1,.18c.1,0,.14,0,.14-.09q2.12.25,7,.44a1.61,1.61,0,0,1,.44-.09v.09l.29-.09h.14l.3.09c.29-.21.43-.73.43-1.57a1.33,1.33,0,0,0-.29-.7q.44-2.89.73-7.49h.15L207.9,69l.15-1.05-.15-.17a2.29,2.29,0,0,0,.29-.7,2.68,2.68,0,0,1-.14-.78l.14-.17-.14-.18a.47.47,0,0,1,.14-.26l-.29-1.22c.1-.12.15-.2.15-.26l-.15-.17a.53.53,0,0,1,.15-.27l-.15-.43.15-.52a11,11,0,0,0-.29-1.66l.29-.35a20,20,0,0,0-.29-2.52.52.52,0,0,0,.14-.35,3,3,0,0,1-.29-1.13h.15l-.3-.87a6.42,6.42,0,0,1,.3-1.4l-.59-1.3a1.78,1.78,0,0,0,.59-1,.77.77,0,0,1-.3-.52c0-.12,0-.17.15-.17l-.15-.44V48.63a2.75,2.75,0,0,1,.15-.78.49.49,0,0,1-.15-.35,15.11,15.11,0,0,0,.15-1.74h.15l-.15-.18v-1a.6.6,0,0,1,.15-.44l-.15-.52V40.34q9.62.19,12.83-.07a47,47,0,0,0,6.77-.94,6,6,0,0,1-.51,3.55v.35h-.14v.09a4.41,4.41,0,0,1-.29,1.31l.14.17v.26h.15v.18c-.49,0-.73.37-.73,1.13a4.88,4.88,0,0,0,.14.52c-.09.17-.19.26-.29.26s0,.09.15.09a5.1,5.1,0,0,1-.59,1.39,2.75,2.75,0,0,1,.15.79v.78q0,.09-.15.09l.15.17A8.2,8.2,0,0,0,225,52.2c0,.06,0,.09.14.09s-.24,1.07-.73,3.05l.15.17-1,6.45.14.17a6.44,6.44,0,0,1-.29,1.74.49.49,0,0,1,.15.35c0,.17-.05.26-.15.26l.15.61v1.74a1.81,1.81,0,0,0,.29,1.13l-.44,1.83V70a8.93,8.93,0,0,0,.15,1.39l-.15.17a.5.5,0,0,1,.15.35,1.73,1.73,0,0,1-.15.7,27.8,27.8,0,0,1,.44,5h-.15q0,.09.15.09l-.15.61v.09c0,.17.05.26.15.26l-.15.43v1.4c0,.06,0,.08-.14.08l.29.7q0,.09-.15.09c0,.06.05.14.15.26l-.15,1.39c.1.84.15,1.31.15,1.4h-.15s.05.08.15.08l-.29,1.48.14.44a12.08,12.08,0,0,0-.29,2.7v2.09a22,22,0,0,0,.15,2.44,1.55,1.55,0,0,0-.15.61,3.47,3.47,0,0,1,.15.52,2.66,2.66,0,0,0-.15.7l.15.6-.3.09q0,.09.15.09l-.15.35c.3,1.26.54,1.93.73,2,.12,2.15.27,3.22.44,3.22,0,.06-.05.09-.14.09a6.68,6.68,0,0,1,.43,1.74c0,.06,0,.09-.14.09l.14.61c0,1.1,0,2.49-.14,4.18l.14.43c0,.06,0,.09-.14.09q.51,4.53,1,4.53v.35c0,.11-.1.17-.3.17H223.5a9.2,9.2,0,0,0-1.31.17q-5.33.09-8.46.09H213q-2.66.22-8.2.42l0-.77s0-.08.15-.08-.05-.09-.15-.09l.87-4.88c0-.17-.05-.26-.14-.26l.14-1v-1.22a7.32,7.32,0,0,1,.3-2.18q0-.09-.15-.09c.17-1,.32-1.56.44-1.56l-.15-.18v-.78a.64.64,0,0,0-.14-.44l.29-1.13a3.47,3.47,0,0,0-.15-.52,14.73,14.73,0,0,0,.15-1.83h.14a4.4,4.4,0,0,1-.29-1.31l.15-.17c-.1-.12-.15-.2-.15-.26s0-.18.15-.18l-.59-3.91a.53.53,0,0,0,.15-.27l-.15-.34.15-.61-.15-.18.15-.17a.6.6,0,0,1-.15-.44h-2.18l-.87.09q-.15,0-.15-.09-.3,0-.3.09-2-.09-2.91-.09h-2.19c-.41,0-.94,0-1.6.09a3.79,3.79,0,0,0-1.17-.09.79.79,0,0,0-.28.52v.09c0,.71-.06,1.58-.15,2.61l.15.35a8.6,8.6,0,0,0-.3,2.44.47.47,0,0,0,.15.26c-.07.34-.17,1.06-.29,2.18l.14.17a1.51,1.51,0,0,0-.29.61c.1.18.2.26.29.26l-.29,1.4c0,.06.05.08.15.08l-.15.35a2.75,2.75,0,0,0,.15.79,7.09,7.09,0,0,0-.15.95q.15.77.15.87a.53.53,0,0,1-.15.27,92.49,92.49,0,0,1,.44,9.66c.15,0,.24.32.29,1h-.14l.14.17v.35c0,.18,0,.26-.14.26a23.17,23.17,0,0,1,.4,3.36,41.92,41.92,0,0,0-6.82-2c0-.12-.78-.21-2.33-.26,0-.25-1.56-.45-4.67-.61-.12,0-.65-.09-1.6-.26h-5.39a37,37,0,0,0-6.41.52,11,11,0,0,0,.72-2.27,41.85,41.85,0,0,0,1-6v-.08a.49.49,0,0,1,.15-.35c-.1-.12-.15-.2-.15-.26l.59-1.74-.15-.53a16.75,16.75,0,0,0,.73-3.22l-.15-.52V101l.15-.52-.15-.18a24.44,24.44,0,0,1,.73-3.31s0-.08-.14-.08a.57.57,0,0,1,.14-.27.63.63,0,0,0-.14-.43,14.57,14.57,0,0,1,.58-3.48l-.14-.79h.14a.44.44,0,0,1-.14-.26c.14-.75.28-1.13.43-1.13l-.15-.18c.2-1.26.3-1.93.3-2a.47.47,0,0,1-.15-.26l.15-.17-.15-.53v-.17q0-.09.15-.09a6.71,6.71,0,0,1-.3-1,5.13,5.13,0,0,1,.44-1.83l-.14-.35c.07-1.39.22-2.09.43-2.09-.09-.42-.14-.65-.14-.7.17-.75.36-2.12.58-4.09l-.14-.17a.6.6,0,0,0,.14-.26c-.19-.44-.29-.67-.29-.7l.44-4.53a5,5,0,0,1-.29-1.65h.14l-.14-.18c0-.11-.05-.75-.15-1.91a10.78,10.78,0,0,1,.29-2.53,1.72,1.72,0,0,1-.14-.7,1.61,1.61,0,0,1,.14-.69l-.29-1.48.15-.18-.15-.61a1.63,1.63,0,0,1,.15-.61,4.33,4.33,0,0,1-.15-1.13,1.87,1.87,0,0,1,.15-.78,2.84,2.84,0,0,1-.15-.87v-.26l.15-.53a.47.47,0,0,1-.15-.35h.15l-.15-.17.15-.44s-.05-.08-.15-.08l.15-.44c0-.23-.05-.75-.15-1.57.1-.17.19-.26.29-.26a11.17,11.17,0,0,1-.29-3v-.61a.5.5,0,0,1,.15-.35.46.46,0,0,1-.15-.34V49.5c0-.17.05-.26.15-.26l-.15-.43V45.5l-.15-.87h.15l-.15-.18V43a8.31,8.31,0,0,0-.14-1.31H172s0-.08-.14-.08l.14-.44v-.08c0-.51-.13-1.75-.4-3.71,4.13.19,8,.3,11.44.33a42,42,0,0,0,6.31-.28C191.16,37.11,192.62,36.85,193.76,36.61Z" transform="translate(-20.22 -12.48)"/><path class="cls-1" d="M277.67,37.43h.55a.55.55,0,0,1,.41.25,1.16,1.16,0,0,1-.68,1.17v.08h.27a5.57,5.57,0,0,0-1,3.18c-.09,0-.18.47-.27,1.42l.14.16a30.08,30.08,0,0,0-.55,3.1l.14.16c-.16,0-.29.92-.41,2.76l.14.17A4.49,4.49,0,0,1,276,51.3l.13.16a1,1,0,0,0-.27.51,2.11,2.11,0,0,0,.27.83.49.49,0,0,0-.13.25,3.14,3.14,0,0,0,.13.5l-.27.42a4.2,4.2,0,0,1,.27,1.25,6.73,6.73,0,0,1-.54,3.09v2.26c0,.13-.23.21-.68.25-1.75-.17-2.79-.25-3.13-.25H270l-4.22-.33c-.3,0-1.07,0-2.32.08a20.88,20.88,0,0,0-2.17-.17,8.19,8.19,0,0,1-1.23.17h-.68c-.77,0-1.59,0-2.46-.08a7.14,7.14,0,0,1-.95.08,1.36,1.36,0,0,0-.41-.08,1.8,1.8,0,0,1-.54.08v-.08a14,14,0,0,1-2.18.25l-.27-.09c-1.91,0-2.87.23-2.87.67,0,.06,0,.09.14.09a14.08,14.08,0,0,1-.41,2.17l.14.16a19.22,19.22,0,0,0-.28,3.35s0,.08-.13.08a.45.45,0,0,1,.13.25c0,.63,0,1.57.14,2.84l-.14.33c.21.67.57,1,1.09,1l.28-.09a22.92,22.92,0,0,0,4.9.51c2.39-.12,4.38-.17,6-.17h.27a1.75,1.75,0,0,1,.54.08,9.38,9.38,0,0,1,2.18-.17h.69l.81.09a2.05,2.05,0,0,1,.69-.09h.54v.09a7,7,0,0,0-.68,2,3.36,3.36,0,0,0-.68,2.09c-.21,0-.34.5-.41,1.51V82l.13,1a1.4,1.4,0,0,1-.4.09,18.24,18.24,0,0,0-3.82-.42,2.38,2.38,0,0,1-.68.08v-.08a1.78,1.78,0,0,1-.41.08c-.09,0-.13,0-.13-.08l-.55.08-1.91-.08c-3,0-4.49.22-4.49.67a5.45,5.45,0,0,1-.55,1.83l.14.17c0,.06,0,.09-.14.09s0,.08.14.08l-.14.83v.17l.14.42h-.14l.14.17a2.91,2.91,0,0,0-.27,1.17v.58a.44.44,0,0,0,.13.33,5,5,0,0,0-.27,1.68,12.33,12.33,0,0,1,.14,1.75h-.14l.14.17v.67l.13.83h-.13l.13.17c0,.05,0,.08-.13.08.13.5.36.75.68.75l1.63-.08.55.08c.63,0,1-.09,1-.16l.54.08q4.85-.42,6.27-.67v.08l.27-.08a1.69,1.69,0,0,1,.41.08,28.39,28.39,0,0,0,2.87-.33v.08l.27-.08h2c1-.17,1.5-.25,1.64-.25.95.06,1.72.08,2.31.08l.14.17A19.58,19.58,0,0,1,272,98.25s.05.08.14.08a16.42,16.42,0,0,0-.55,2.42.49.49,0,0,0,.14.25s-.05.27-.14.67a6.47,6.47,0,0,0,.28,1.67,2.51,2.51,0,0,0-.14.75,26.63,26.63,0,0,1,.41,3.43l-.14.17.27.33-.13.75.68,2.51a.49.49,0,0,1-.14.25,7.68,7.68,0,0,0,.55,2H273a9.38,9.38,0,0,1,.41,1.67l-.41.16h-.13c-.09,0-.14,0-.14-.08l-.27.08h-.28a1.53,1.53,0,0,1-.54-.08,1.36,1.36,0,0,1-.41.08l-4.36-.33-.27.08a25.12,25.12,0,0,0-4.64-.25l-.54.09-.27-.26c-.09,0-.14,0-.14.09l-.95-.09h-1.91a6.67,6.67,0,0,1-1.09-.08c-1.25.07-2,.13-2.31.17l-.82-.09h-.41c-1.16,0-2.43,0-3.82-.08l-.68.08a1.82,1.82,0,0,0-.4-.08,1.59,1.59,0,0,1-.55.08v-.08l-.27.08h-1.37c-.09,0-.13,0-.13-.08a2.4,2.4,0,0,1-.82.17h-1.77a10.73,10.73,0,0,1-1.23-.09l-.27.09-.82-.09a1.4,1.4,0,0,0-.4.09,1.39,1.39,0,0,1-.41-.09l-2.32.17-.68-.08a3.28,3.28,0,0,1-.82.17v-.09l-.27.09h-2l-1.37.08V115l-.27.08h-2.59L230,115a3.22,3.22,0,0,0,.55-1.59v-.67l.27-.25v-.75a12.44,12.44,0,0,0,.54-3.68c.09,0,.18-.19.27-.58l-.13-.17a.48.48,0,0,0,.13-.33l-.13-.17a5.48,5.48,0,0,0,.41-2l-.14-.16a3.41,3.41,0,0,0,.41-1.67.55.55,0,0,1-.14-.26h.14s0-.08-.14-.08c.16-1.17.3-1.75.41-1.75l-.13-.17a.44.44,0,0,1,.13-.33c0-.06,0-.09-.13-.09a12.15,12.15,0,0,1,.4-1.84l-.13-.16a17.64,17.64,0,0,0,.54-3.85.45.45,0,0,1-.13-.25.45.45,0,0,0,.13-.25c0-.05,0-.08-.13-.08l.41-1.92-.14-.42v-1c0-.06,0-.09.14-.09a.42.42,0,0,1-.14-.25,2.16,2.16,0,0,1,.27-1.08,6.56,6.56,0,0,1-.13-1.17c0-1,0-2.22.13-3.68l.14-.16A5.13,5.13,0,0,1,233.4,82h.13l-.13-.17.13-.17c0-.05,0-.08-.13-.08l.13-.42V79.53s.05-.08.14-.08l-.14-.17a24.38,24.38,0,0,1,.27-3.59l-.27-.67a15.54,15.54,0,0,0,.27-2,3.14,3.14,0,0,0-.13-.5c0-.12,0-.17.13-.17-.09-.56-.18-1.95-.27-4.18l.14-.58a1.83,1.83,0,0,1-.14-.67c0-.06.05-.08.14-.08l-.14-.42v-1a2.82,2.82,0,0,0-.13-.84,10.52,10.52,0,0,0,.27-1.75c-.09-1.16-.14-2.25-.14-3.26l-.13-.17c.09-.33.18-.5.27-.5l-.14-.42V57.4a.48.48,0,0,0-.13-.34l.13-.17s0-.08-.13-.08a2.69,2.69,0,0,1,.27-.83.55.55,0,0,1-.14-.26.58.58,0,0,1,.14-.25l-.41-2.25.14-.17a9.93,9.93,0,0,1-.28-2h.14l-.14-.17V49.63c0-.06,0-.09.14-.09l-.41-1.42c0-.08.05-.47.14-1.17a7.07,7.07,0,0,0-.28-2.25l.14-.5v-.51l.14-.16c-.09,0-.23-.11-.41-.34l.13-.41V41.11l-.27-.26c0-.05.05-.08.14-.08l-.14-.17c.12-.89.3-1.33.55-1.33l2.86.08q8-.21,8.31-.33l2.45.16,7.36-.5v.09a37.08,37.08,0,0,1,4.36-.42l.68.08,5.31-.58.55.08.81-.08v.08l1.23-.25.54.08Q274,37.43,277.67,37.43Z" transform="translate(-20.22 -12.48)"/></svg>